<svg version="1.1" xmlns="http://www.w3.org/2000/svg" viewBox="0 0 44.10059741089486 47.14048411647366" width="132.3017922326846" height="141.42145234942097">
  <!-- svg-source:excalidraw -->
  
  <defs>
    <style class="style-fonts">
      @font-face {
        font-family: "Virgil";
        src: url("https://excalidraw.com/Virgil.woff2");
      }
      @font-face {
        font-family: "Cascadia";
        src: url("https://excalidraw.com/Cascadia.woff2");
      }
      @font-face {
        font-family: "Assistant";
        src: url("https://excalidraw.com/Assistant-Regular.woff2");
      }
    </style>
    
  </defs>
  <rect x="0" y="0" width="44.10059741089486" height="47.14048411647366" fill="#ffffff"></rect><g stroke-linecap="round" transform="translate(10.164416039259407 9.855762058788855) rotate(16.854735252326623 11.885882666188039 13.714479999447974)"><path d="M11.77 -0.22 C14.18 -0.33, 17.76 1.71, 19.74 3.68 C21.73 5.65, 23.22 8.82, 23.68 11.58 C24.13 14.33, 23.84 17.7, 22.48 20.23 C21.13 22.76, 18 25.71, 15.57 26.74 C13.13 27.78, 10.23 27.47, 7.88 26.43 C5.53 25.38, 2.77 23.08, 1.45 20.46 C0.14 17.84, -0.51 13.66, -0.02 10.72 C0.47 7.79, 2.27 4.62, 4.38 2.83 C6.48 1.04, 11.06 0.38, 12.61 -0.02 C14.16 -0.42, 13.63 0.16, 13.68 0.44 M12.46 -0.05 C14.87 -0.29, 18.72 0.87, 20.49 2.99 C22.25 5.1, 22.84 9.66, 23.06 12.65 C23.28 15.64, 23.16 18.57, 21.81 20.93 C20.45 23.29, 17.25 25.83, 14.92 26.81 C12.59 27.78, 10.14 27.84, 7.81 26.8 C5.49 25.75, 2.15 23.12, 0.97 20.55 C-0.22 17.97, 0.17 14.26, 0.72 11.33 C1.26 8.4, 2.37 4.87, 4.22 2.96 C6.06 1.06, 10.38 0.32, 11.76 -0.11 C13.15 -0.53, 12.32 0.17, 12.54 0.41" stroke="none" stroke-width="0" fill="#ffec99"></path><path d="M14.84 0.38 C17.29 0.74, 20.35 2.95, 21.8 5.34 C23.26 7.72, 23.79 11.77, 23.57 14.69 C23.35 17.62, 22.16 20.79, 20.48 22.88 C18.79 24.97, 15.91 26.92, 13.45 27.23 C10.98 27.54, 7.76 26.39, 5.69 24.75 C3.61 23.11, 1.71 20.1, 1 17.38 C0.29 14.66, 0.58 11.11, 1.43 8.43 C2.27 5.74, 3.83 2.63, 6.08 1.27 C8.34 -0.09, 13.44 0.39, 14.94 0.26 C16.43 0.13, 15.2 0.23, 15.07 0.5 M14.61 0.58 C16.89 0.81, 19.27 2.52, 20.85 4.6 C22.44 6.68, 24.12 9.98, 24.1 13.07 C24.07 16.15, 22.39 20.73, 20.73 23.1 C19.06 25.46, 16.65 26.93, 14.13 27.25 C11.61 27.57, 7.94 26.61, 5.61 25.02 C3.29 23.44, 0.98 20.45, 0.17 17.74 C-0.64 15.03, -0.13 11.42, 0.74 8.76 C1.61 6.09, 3.2 3.08, 5.37 1.74 C7.54 0.4, 12.39 0.86, 13.75 0.71 C15.11 0.57, 13.49 0.71, 13.54 0.89" stroke="#f08c00" stroke-width="1" fill="none"></path></g></svg>